<?xml version="1.0" encoding="UTF-8"?>
<svg id="Camada_2" data-name="Camada 2" xmlns="http://www.w3.org/2000/svg" viewBox="0 0 173.81 226.51">
  <defs>
    <style>
      .cls-1 {
        fill: #f33432;
      }

      .cls-1, .cls-2, .cls-3 {
        stroke-width: 0px;
      }

      .cls-2 {
        fill: #fff;
      }

      .cls-3 {
        fill: #c52726;
      }

      .cls-4 {
        font-size: 10.09px;
        letter-spacing: 0em;
      }

      .cls-4, .cls-5 {
        font-family: Poppins-Regular, Poppins;
      }

      .cls-5 {
        font-size: 10.17px;
        letter-spacing: 0em;
      }
    </style>
  </defs>
  <g id="Camada_1-2" data-name="Camada 1">
    <g>
      <g>
        <path class="cls-1" d="m173.81,44.55v169.6c0,6.84-5.52,12.36-12.36,12.36H12.36c-6.84,0-12.36-5.52-12.36-12.36V12.36C0,5.52,5.52,0,12.36,0h116.89l44.55,44.55Z"/>
        <path class="cls-3" d="m129.18.02v38.32c0,3.52,2.86,6.37,6.38,6.36l38.17-.13"/>
      </g>
      <g>
        <g>
          <g>
            <text class="cls-4" transform="translate(34.34 139.78)"><tspan x="0" y="0">SÃO</tspan></text>
            <text class="cls-5" transform="translate(23.02 149.3)"><tspan x="0" y="0">PAULO</tspan></text>
          </g>
          <text class="cls-5" transform="translate(36.96 159.15)"><tspan x="0" y="0">PDF</tspan></text>
        </g>
        <g>
          <path class="cls-2" d="m83.01,117.51c.2,0,.35,0,.5,0,5.87,0,11.75-.02,17.62.02,3.32.02,6.61.37,9.8,1.41,5.34,1.76,8.33,5.5,9.2,10.98.25,1.58.38,3.2.39,4.81.04,4.04.05,8.07-.05,12.11-.07,2.85-.67,5.6-2.12,8.11-1.88,3.25-4.85,5.01-8.35,6.01-2.81.8-5.69,1.11-8.59,1.13-6.01.04-12.01.02-18.02.02-.11,0-.22-.01-.38-.02v-44.56Zm12.98,34.73c2.35-.15,4.68.24,6.98-.35,1.87-.48,3.14-1.63,3.6-3.49.3-1.18.44-2.43.46-3.65.06-3.26.04-6.52.01-9.78,0-.89-.08-1.78-.21-2.66-.4-2.8-1.86-4.43-4.66-4.79-2-.26-4.04-.15-6.07-.2-.03,0-.06.03-.12.07v24.84Z"/>
          <path class="cls-2" d="m62.46,162.02v-81.75c.2-.01.4-.03.6-.03,3.92,0,7.85-.01,11.77,0,3.01,0,27.89.03,30.9.08,2.3.04,4.57.29,6.78.98,4.34,1.36,6.88,4.32,7.7,8.75.62,3.36.41,6.76.28,10.15-.06,1.67-.46,3.3-1.13,4.84-1.44,3.29-4.06,5.14-7.42,6.08-2.06.58-4.16.81-6.29.82-2.56.01-26.99,0-29.54.01-.2,0-.41,0-.68,0v50.07h-12.97Zm12.87-71.08v10.99c2.13,0,26.08.07,28.16-.02,2.01-.09,3.26-1.07,3.42-2.98.2-2.31.19-2.73,0-5.03-.16-1.83-1.32-2.83-3.15-2.94-2.17-.12-26.22-.03-28.43-.03Z"/>
          <path class="cls-2" d="m140.23,162.06h-13.37v-44.51h30.38v8.72h-16.99v10.79h15.77v8.78h-15.79v16.22Z"/>
          <path class="cls-2" d="m19.72,110.28h12.51c0,.77.03,1.51,0,2.25-.12,2.28.55,3.57,3.46,4.05,1.4.23,2.81.22,4.2-.07,1.83-.38,2.5-1.21,2.5-3.08,0-.39-.02-.78,0-1.17.09-1.85-.77-3.15-2.31-4.06-1.67-.99-3.55-1.46-5.38-2.04-2.45-.77-4.92-1.51-7.31-2.45-2.33-.91-4.29-2.4-5.66-4.57-.83-1.32-1.32-2.77-1.5-4.32-.25-2.09-.3-4.19.09-6.26.65-3.52,2.84-5.76,6.08-7.09,2.27-.93,4.66-1.34,7.08-1.52,3.52-.27,7.04-.21,10.52.41,2.13.38,4.17,1,6.04,2.12,3.08,1.86,4.65,4.64,4.9,8.18.1,1.43.02,2.88.02,4.36h-12.86c-.01-.16-.03-.32-.03-.48,0-.89,0-1.78,0-2.67-.01-1.81-.78-2.84-2.53-3.3-1.55-.41-3.12-.43-4.67,0-1.43.39-2.02,1.2-2.02,2.66,0,.43.02.85,0,1.28-.1,1.78.75,3,2.23,3.86,1.62.94,3.41,1.41,5.2,1.9,2.57.71,5.16,1.34,7.6,2.45,2.33,1.07,4.37,2.5,5.73,4.75.89,1.49,1.4,3.1,1.52,4.83.14,2.11.25,4.23-.18,6.31-.67,3.26-2.73,5.38-5.71,6.68-2.53,1.11-5.21,1.55-7.93,1.75-3.72.27-7.44.23-11.14-.41-1.63-.28-3.21-.72-4.71-1.43-3.6-1.69-5.41-4.6-5.7-8.49-.11-1.45-.02-2.92-.02-4.42Z"/>
        </g>
      </g>
    </g>
  </g>
</svg>